<svg version="1.1" id="Layer_1" xmlns="http://www.w3.org/2000/svg" xmlns:xlink="http://www.w3.org/1999/xlink" x="0px" y="0px"
	 width="100%" viewBox="0 0 512 512" enable-background="new 0 0 512 512" xml:space="preserve">
<path fill="#FFFFFF" opacity="1.000000" stroke="none" 
	d="
M513.000000,217.000000 
	C513.000000,243.354233 513.000000,269.708466 512.633545,296.532776 
	C508.441589,299.663696 504.901276,303.962036 500.738647,304.686981 
	C486.648743,307.140686 472.328857,308.255280 458.126648,310.109833 
	C456.656616,310.301849 454.527527,311.770050 454.153229,313.064941 
	C449.767395,328.237305 443.638275,342.650330 436.198364,356.557159 
	C435.597870,357.679657 435.852234,359.970337 436.640839,361.015228 
	C444.553284,371.499542 452.568481,381.910065 460.742462,392.192139 
	C467.391907,400.556549 467.896667,408.188354 461.917084,414.373566 
	C446.299561,430.528107 430.292450,446.309082 414.289490,462.085663 
	C410.512421,465.809296 405.482941,467.670380 400.571838,464.943176 
	C394.291351,461.455505 388.364197,457.260864 382.571411,452.982819 
	C374.529724,447.043884 366.754303,440.744385 360.344482,435.751709 
	C343.931396,442.188049 328.880737,448.055328 313.873474,454.031555 
	C312.444702,454.600586 310.492523,455.631287 310.161194,456.828827 
	C309.346161,459.774475 309.326569,462.941589 309.001587,466.021149 
	C307.991577,475.591522 307.323486,485.215057 305.838196,494.710876 
	C305.116608,499.324402 303.095245,503.796997 301.210541,508.137207 
	C300.395660,510.013763 298.438354,511.394196 297.000000,513.000000 
	C270.645782,513.000000 244.291550,513.000000 217.756088,512.709534 
	C211.843872,508.367218 208.750839,502.854187 208.373489,495.830658 
	C208.249725,493.526825 208.230453,491.208282 207.944534,488.923828 
	C206.673035,478.764435 205.129181,468.634003 204.123962,458.449677 
	C203.842239,455.595398 202.733521,454.819672 200.351578,453.917175 
	C185.100677,448.138641 169.931412,442.144653 153.525604,435.749969 
	C143.708939,443.500458 132.344330,452.128571 121.384262,461.243103 
	C113.615807,467.703400 105.275009,467.787384 98.085533,460.595642 
	C83.019234,445.524567 67.953888,430.452576 52.894211,415.374878 
	C47.120258,409.593964 46.134682,402.083557 50.975399,395.662445 
	C59.279064,384.647766 67.922806,373.888519 76.485413,363.070801 
	C78.015366,361.137939 79.528641,359.505005 78.008614,356.759827 
	C70.286034,342.812714 64.277122,328.154297 59.885239,312.819031 
	C59.567760,311.710480 58.219734,310.351227 57.131565,310.113861 
	C54.123093,309.457642 50.999218,309.326630 47.919540,309.001495 
	C38.348507,307.990906 28.731056,307.288391 19.225506,305.847137 
	C14.749418,305.168488 10.372754,303.338654 6.179176,301.507874 
	C4.178165,300.634308 2.709686,298.540894 0.999998,297.000000 
	C1.000000,270.645782 1.000000,244.291550 1.366440,217.467209 
	C2.166248,216.814056 2.806418,216.755173 3.002013,216.429367 
	C6.001484,211.433441 10.382203,209.068207 16.205212,208.948074 
	C19.452087,208.881073 22.697779,208.384323 25.928171,207.960541 
	C35.751457,206.671875 45.548466,205.147186 55.397713,204.115372 
	C58.114658,203.830734 59.109222,203.024872 60.097588,200.514740 
	C65.489136,186.821823 70.941170,173.139938 76.930305,159.702942 
	C78.715118,155.698578 78.266548,153.253342 75.669487,150.041443 
	C67.204018,139.571808 58.996529,128.891998 50.774075,118.228050 
	C46.297821,112.422653 48.168919,103.082832 52.611111,98.746048 
	C68.096092,83.628510 83.291061,68.213989 98.602936,52.919018 
	C104.567749,46.960777 111.814865,46.125526 118.683846,51.286846 
	C129.579086,59.473461 140.208725,68.014595 150.909470,76.458038 
	C152.826172,77.970406 154.443878,79.503464 157.208908,78.015648 
	C171.220718,70.476112 185.631378,63.889084 201.120697,59.886795 
	C202.234772,59.598930 203.644165,58.266235 203.881531,57.190933 
	C204.545074,54.184929 204.673386,51.059845 204.998413,47.980221 
	C206.008438,38.409588 206.712479,28.793020 208.148987,19.287024 
	C208.825668,14.809165 210.636658,10.426664 212.463272,6.231556 
	C213.342560,4.212109 215.449158,2.727048 217.000000,1.000001 
	C243.354233,1.000000 269.708466,1.000000 296.243896,1.290492 
	C302.184845,5.625026 305.225464,11.176933 305.633850,18.188179 
	C305.768188,20.494431 305.767731,22.817667 306.057617,25.104149 
	C307.325897,35.108063 308.888977,45.080734 309.869049,55.111256 
	C310.155884,58.046612 310.978088,59.089287 313.704956,60.114544 
	C328.986908,65.860298 344.147430,71.929108 360.402466,78.300362 
	C370.497162,70.297958 382.045410,61.590401 393.058807,52.252052 
	C400.146179,46.242607 410.500244,47.636086 415.789795,53.112309 
	C430.607910,68.453346 445.864136,83.371216 460.943268,98.460251 
	C466.943268,104.464188 467.885559,111.823021 462.829559,118.553879 
	C454.635864,129.461868 445.986115,140.026749 437.747955,150.902390 
	C436.547333,152.487442 435.457947,155.535126 436.176758,156.982315 
	C443.256714,171.236023 449.996918,185.589081 454.105499,201.051712 
	C454.406342,202.184067 455.683502,203.639267 456.745270,203.876434 
	C459.752075,204.548019 462.881927,204.673264 465.964966,204.998276 
	C475.545959,206.008286 485.167694,206.739059 494.691132,208.139297 
	C499.020996,208.775925 503.289307,210.431412 507.327454,212.210464 
	C509.500000,213.167618 511.126923,215.363205 513.000000,217.000000 
M338.510132,354.994873 
	C340.397705,353.440094 342.375214,351.981537 344.158661,350.315277 
	C358.762970,336.670624 369.297821,320.246246 376.611023,301.767212 
	C382.404999,287.127014 384.450226,271.631805 384.794830,256.057526 
	C384.969238,248.175400 383.310028,240.192276 381.945496,232.347778 
	C377.762329,208.299957 366.461365,187.743408 350.234070,169.797653 
	C341.749908,160.414978 331.727692,152.793457 320.839874,146.426895 
	C300.993744,134.822052 279.239014,129.675400 256.478363,129.187729 
	C248.431137,129.015320 240.279236,130.663376 232.276352,132.060272 
	C208.412216,136.225723 187.909058,147.358994 170.109558,163.474991 
	C155.168747,177.002670 144.727524,193.753815 137.304138,212.368805 
	C131.595078,226.684891 129.743805,241.881805 129.230423,257.084076 
	C128.953812,265.275452 130.638245,273.608398 132.065689,281.767670 
	C136.239761,305.626801 147.388687,326.125214 163.504974,343.923981 
	C177.034927,358.866364 193.793076,369.303650 212.410278,376.711884 
	C226.728592,382.409454 241.935944,384.520599 257.138794,384.722931 
	C267.100281,384.855530 277.239227,382.987946 287.047913,380.860168 
	C306.073975,376.732941 322.938232,367.826324 338.510132,354.994873 
z"/>
</svg>